<svg xmlns="http://www.w3.org/2000/svg" xmlns:xlink="http://www.w3.org/1999/xlink" preserveAspectRatio="xMidYMid" width="29.18" height="29.5" viewBox="0 0 29.18 29.5">
  <defs>
    <style>
      .cls-1 {
        fill: #007aff;
        fill-rule: evenodd;
      }
    </style>
  </defs>
  <path d="M20.746,29.491 L20.746,23.698 L29.170,23.698 L29.170,29.491 L20.746,29.491 ZM20.746,15.621 L29.170,15.621 L29.170,21.414 L20.746,21.414 L20.746,15.621 ZM20.746,7.797 L29.170,7.797 L29.170,13.590 L20.746,13.590 L20.746,7.797 ZM10.378,23.698 L18.802,23.698 L18.802,29.491 L10.378,29.491 L10.378,23.698 ZM10.378,15.910 L18.802,15.910 L18.802,21.703 L10.378,21.703 L10.378,15.910 ZM11.350,20.727 L17.830,20.727 L17.830,16.885 L11.350,16.885 L11.350,20.727 ZM10.378,7.833 L18.802,7.833 L18.802,13.626 L10.378,13.626 L10.378,7.833 ZM11.350,12.650 L17.830,12.650 L17.830,8.808 L11.350,8.808 L11.350,12.650 ZM10.378,0.009 L18.802,0.009 L18.802,5.802 L10.378,5.802 L10.378,0.009 ZM0.010,15.910 L8.434,15.910 L8.434,21.703 L0.010,21.703 L0.010,15.910 ZM0.010,7.833 L8.434,7.833 L8.434,13.626 L0.010,13.626 L0.010,7.833 ZM0.010,0.009 L8.434,0.009 L8.434,5.802 L0.010,5.802 L0.010,0.009 Z" class="cls-1"/>
</svg>
