<svg xmlns="http://www.w3.org/2000/svg" xmlns:xlink="http://www.w3.org/1999/xlink" preserveAspectRatio="xMidYMid" width="25.12" height="24" viewBox="0 0 25.12 24">
  <defs>
    <style>
      .cls-1 {
        fill: #5c5c5f;
        opacity: 0.4;
        fill-rule: evenodd;
      }
    </style>
  </defs>
  <path d="M14.142,13.656 C13.459,14.315 12.360,14.326 11.666,13.656 L0.485,2.845 C-0.206,2.185 -0.206,1.120 0.485,0.461 C1.168,-0.199 2.270,-0.199 2.952,0.461 L12.908,10.071 L22.164,1.137 C22.846,0.478 23.948,0.478 24.639,1.137 C25.322,1.797 25.322,2.870 24.631,3.530 L14.142,13.656 ZM2.952,10.294 L12.908,19.905 L22.164,10.970 C22.846,10.311 23.948,10.311 24.639,10.970 C25.322,11.630 25.322,12.704 24.631,13.363 L14.142,23.489 C13.459,24.149 12.360,24.160 11.666,23.489 L0.485,12.678 C-0.206,12.019 -0.206,10.954 0.485,10.294 C1.168,9.635 2.270,9.635 2.952,10.294 Z" class="cls-1"/>
</svg>
