<svg xmlns="http://www.w3.org/2000/svg" xmlns:xlink="http://www.w3.org/1999/xlink" preserveAspectRatio="xMidYMid" width="25.15" height="24.407" viewBox="0 0 25.15 24.407">
  <defs>
    <style>
      .cls-1 {
        fill: #5c5c5f;
        opacity: 0.4;
        fill-rule: evenodd;
      }
    </style>
  </defs>
  <path d="M22.196,13.220 L12.936,4.134 L2.977,13.907 C2.294,14.578 1.190,14.578 0.507,13.907 C-0.184,13.237 -0.184,12.154 0.507,11.483 L11.693,0.489 C12.388,-0.193 13.488,-0.181 14.170,0.489 L24.665,10.787 C25.356,11.457 25.356,12.549 24.673,13.220 C23.982,13.890 22.879,13.890 22.196,13.220 ZM11.693,10.489 C12.388,9.807 13.488,9.819 14.170,10.489 L24.665,20.787 C25.356,21.457 25.356,22.549 24.673,23.220 C23.982,23.890 22.879,23.890 22.196,23.220 L12.936,14.134 L2.977,23.907 C2.294,24.578 1.190,24.578 0.507,23.907 C-0.184,23.237 -0.184,22.154 0.507,21.483 L11.693,10.489 Z" class="cls-1"/>
</svg>
