<svg xmlns="http://www.w3.org/2000/svg" xmlns:xlink="http://www.w3.org/1999/xlink" preserveAspectRatio="xMidYMid" width="40" height="40" viewBox="0 0 40 40">
  <defs>
    <style>
      .cls-1 {
        fill: #fff;
        fill-rule: evenodd;
      }
    </style>
  </defs>
  <path d="M35.845,39.995 L4.146,39.995 C1.859,39.995 -0.000,38.137 -0.000,35.855 L-0.000,4.140 C-0.000,1.857 1.859,0.001 4.146,0.001 L35.845,0.001 C38.130,0.001 39.990,1.857 39.990,4.140 L39.990,35.855 C39.990,38.137 38.130,39.995 35.845,39.995 ZM11.413,2.977 C10.526,2.977 9.807,3.695 9.807,4.580 C9.807,5.465 10.526,6.182 11.413,6.182 C12.299,6.182 13.018,5.465 13.018,4.580 C13.018,3.695 12.299,2.977 11.413,2.977 ZM28.663,2.990 C27.776,2.990 27.057,3.708 27.057,4.593 C27.057,5.478 27.776,6.195 28.663,6.195 C29.549,6.195 30.268,5.478 30.268,4.593 C30.268,3.708 29.549,2.990 28.663,2.990 ZM37.292,8.630 L2.698,8.630 L2.698,35.855 C2.698,36.652 3.347,37.301 4.146,37.301 L35.845,37.301 C36.643,37.301 37.292,36.652 37.292,35.855 L37.292,8.630 ZM27.845,31.719 L25.850,31.719 C25.477,31.719 25.175,31.417 25.175,31.046 L25.175,18.843 L23.471,19.761 C23.288,19.859 23.070,19.869 22.879,19.786 C22.689,19.701 22.549,19.535 22.497,19.335 L22.099,17.764 C22.023,17.464 22.160,17.152 22.434,17.005 L25.766,15.225 C25.864,15.172 25.974,15.146 26.084,15.146 L27.845,15.146 C28.217,15.146 28.519,15.447 28.519,15.819 L28.519,31.046 C28.519,31.417 28.217,31.719 27.845,31.719 ZM20.045,26.735 C20.045,29.261 18.093,31.977 13.809,31.977 C11.894,31.977 10.277,31.363 9.473,30.835 C9.211,30.665 9.102,30.339 9.207,30.046 L9.771,28.477 C9.838,28.287 9.988,28.136 10.179,28.070 C10.367,28.001 10.580,28.023 10.753,28.126 C11.275,28.438 12.499,28.968 13.785,28.968 C14.755,28.968 15.489,28.719 15.972,28.229 C16.356,27.839 16.571,27.281 16.561,26.701 C16.535,24.431 13.834,24.317 13.292,24.317 L12.143,24.317 C11.770,24.317 11.468,24.015 11.468,23.644 L11.468,22.097 C11.468,21.725 11.770,21.424 12.143,21.424 L13.292,21.424 C14.389,21.424 16.020,20.917 16.020,19.519 C16.020,18.474 15.310,17.897 14.020,17.897 C12.969,17.897 11.931,18.373 11.362,18.779 C11.191,18.901 10.973,18.937 10.772,18.876 C10.573,18.815 10.412,18.665 10.338,18.469 L9.774,16.969 C9.666,16.683 9.766,16.361 10.014,16.184 C10.853,15.587 12.511,14.888 14.418,14.888 C17.900,14.888 19.459,17.049 19.459,19.192 C19.459,20.635 18.798,21.861 17.604,22.706 C19.108,23.502 20.045,24.986 20.045,26.735 Z" class="cls-1"/>
</svg>
