<svg xmlns="http://www.w3.org/2000/svg" xmlns:xlink="http://www.w3.org/1999/xlink" preserveAspectRatio="xMidYMid" width="34.68" height="24.5" viewBox="0 0 34.68 24.5">
  <defs>
    <style>
      .cls-1 {
        fill: #ff2d55;
        fill-rule: evenodd;
      }
    </style>
  </defs>
  <path d="M31.624,24.504 L3.057,24.504 C1.373,24.504 0.001,23.133 0.001,21.450 L0.001,3.050 C0.001,1.366 1.373,-0.004 3.057,-0.004 L31.624,-0.004 C33.309,-0.004 34.679,1.366 34.679,3.050 L34.679,21.450 C34.679,23.133 33.309,24.504 31.624,24.504 ZM32.256,3.050 C32.256,2.702 31.973,2.420 31.624,2.420 L3.057,2.420 C2.708,2.420 2.424,2.702 2.424,3.050 L2.424,5.908 L32.256,5.908 L32.256,3.050 ZM32.256,11.183 L2.424,11.183 L2.424,21.450 C2.424,21.796 2.708,22.081 3.057,22.081 L31.624,22.081 C31.973,22.081 32.256,21.796 32.256,21.450 L32.256,11.183 ZM28.052,17.929 L19.036,17.929 C18.767,17.929 18.551,17.713 18.551,17.445 C18.551,17.177 18.767,16.961 19.036,16.961 L28.052,16.961 C28.320,16.961 28.537,17.177 28.537,17.445 C28.537,17.713 28.320,17.929 28.052,17.929 Z" class="cls-1"/>
</svg>
