<svg xmlns="http://www.w3.org/2000/svg" xmlns:xlink="http://www.w3.org/1999/xlink" preserveAspectRatio="xMidYMid" width="26.76" height="32.062" viewBox="0 0 26.76 32.062">
  <defs>
    <style>
      .cls-1 {
        fill: #007aff;
        fill-rule: evenodd;
      }
    </style>
  </defs>
  <path d="M21.993,10.379 L21.993,21.341 C21.993,21.587 21.793,21.786 21.547,21.786 L5.213,21.786 C4.967,21.786 4.767,21.587 4.767,21.341 L4.767,10.380 C2.109,10.154 0.015,7.918 0.015,5.202 C0.015,2.336 2.346,0.004 5.213,0.004 C6.833,0.004 8.316,0.745 9.297,2.015 C10.278,0.745 11.760,0.004 13.380,0.004 C15.000,0.004 16.482,0.745 17.463,2.015 C18.444,0.745 19.927,0.004 21.547,0.004 C24.413,0.004 26.745,2.336 26.745,5.201 C26.745,7.917 24.652,10.153 21.993,10.379 ZM2.653,29.769 C4.442,29.769 6.034,27.144 6.636,26.016 C6.729,25.748 6.865,25.470 7.029,25.229 C7.750,24.167 8.945,23.533 10.226,23.533 C11.503,23.533 12.669,24.155 13.381,25.171 C14.093,24.155 15.259,23.533 16.536,23.533 C17.816,23.533 19.011,24.167 19.732,25.227 C19.894,25.468 20.031,25.744 20.151,26.072 C20.727,27.144 22.320,29.769 24.108,29.769 C24.312,29.769 24.490,29.907 24.542,30.105 C24.592,30.303 24.502,30.510 24.323,30.607 C24.214,30.667 21.626,32.058 18.719,32.058 C18.718,32.058 18.718,32.058 18.718,32.058 C16.744,32.058 15.106,31.418 13.846,30.158 C13.835,30.148 13.825,30.138 13.817,30.127 C13.657,29.967 13.511,29.795 13.381,29.608 C13.252,29.795 13.106,29.967 12.945,30.128 C12.936,30.138 12.927,30.148 12.916,30.158 C11.657,31.418 10.018,32.058 8.045,32.058 C5.136,32.058 2.548,30.667 2.440,30.607 C2.260,30.509 2.170,30.303 2.221,30.105 C2.271,29.908 2.448,29.769 2.653,29.769 Z" class="cls-1"/>
</svg>
