<svg xmlns="http://www.w3.org/2000/svg" xmlns:xlink="http://www.w3.org/1999/xlink" preserveAspectRatio="xMidYMid" width="22" height="22" viewBox="0 0 22 22">
  <defs>
    <style>
      .cls-1 {
        fill: #ed1c24;
        fill-rule: evenodd;
      }
    </style>
  </defs>
  <path d="M18.494,0.110 C18.318,-0.066 18.029,-0.066 17.853,0.110 L11.307,6.655 C11.131,6.832 10.842,6.832 10.666,6.655 L4.121,0.110 C3.944,-0.066 3.655,-0.066 3.479,0.110 L0.111,3.478 C-0.065,3.654 -0.065,3.943 0.111,4.119 L6.656,10.665 C6.833,10.841 6.833,11.130 6.656,11.306 L0.111,17.852 C-0.065,18.028 -0.065,18.317 0.111,18.493 L3.479,21.861 C3.655,22.038 3.944,22.038 4.120,21.861 L10.666,15.316 C10.842,15.139 11.131,15.139 11.307,15.316 L17.853,21.861 C18.029,22.037 18.318,22.037 18.494,21.861 L21.862,18.493 C22.039,18.317 22.039,18.028 21.862,17.852 L15.317,11.306 C15.141,11.130 15.141,10.841 15.317,10.665 L21.862,4.120 C22.039,3.943 22.039,3.654 21.862,3.478 L18.494,0.110 Z" class="cls-1"/>
</svg>
