<svg xmlns="http://www.w3.org/2000/svg" xmlns:xlink="http://www.w3.org/1999/xlink" preserveAspectRatio="xMidYMid" width="32.56" height="28.938" viewBox="0 0 32.56 28.938">
  <defs>
    <style>
      .cls-1 {
        fill: #007aff;
        fill-rule: evenodd;
      }
    </style>
  </defs>
  <path d="M23.100,28.927 C17.876,28.927 13.640,27.007 13.640,24.639 L13.640,23.709 C13.640,23.408 13.708,23.114 13.839,22.831 C14.733,24.778 18.540,26.241 23.100,26.241 C27.661,26.241 31.468,24.778 32.362,22.831 C32.492,23.114 32.561,23.408 32.561,23.709 L32.561,24.639 C32.561,27.007 28.325,28.927 23.100,28.927 ZM23.100,24.140 C17.876,24.140 13.640,22.220 13.640,19.851 L13.640,18.921 C13.640,18.620 13.708,18.326 13.839,18.043 C14.733,19.990 18.540,21.453 23.100,21.453 C27.661,21.453 31.468,19.990 32.362,18.043 C32.492,18.326 32.561,18.620 32.561,18.921 L32.561,19.851 C32.561,22.220 28.325,24.140 23.100,24.140 ZM23.100,19.093 C17.876,19.093 13.640,17.173 13.640,14.805 L13.640,13.875 C13.640,13.574 13.708,13.280 13.839,12.996 C14.733,14.944 18.540,16.407 23.100,16.407 C27.661,16.407 31.468,14.944 32.362,12.996 C32.492,13.280 32.561,13.574 32.561,13.875 L32.561,14.805 C32.561,17.173 28.325,19.093 23.100,19.093 ZM23.100,14.305 C17.876,14.305 13.640,12.385 13.640,10.017 L13.640,9.087 C13.640,8.786 13.708,8.492 13.839,8.208 C14.733,10.156 18.540,11.619 23.100,11.619 C27.661,11.619 31.468,10.156 32.362,8.208 C32.492,8.492 32.561,8.786 32.561,9.087 L32.561,10.017 C32.561,12.385 28.325,14.305 23.100,14.305 ZM23.100,9.518 C17.876,9.518 13.640,7.598 13.640,5.229 L13.640,4.299 C13.640,1.931 17.876,0.011 23.100,0.011 C28.325,0.011 32.561,1.931 32.561,4.299 L32.561,5.229 C32.561,7.598 28.325,9.518 23.100,9.518 ZM-0.001,22.068 L-0.001,21.138 C-0.001,20.837 0.068,20.543 0.198,20.260 C1.092,22.207 4.899,23.670 9.459,23.670 C10.375,23.670 11.259,23.610 12.097,23.500 L12.097,23.709 L12.097,24.639 C12.097,25.159 12.217,25.661 12.449,26.138 C11.509,26.279 10.504,26.356 9.459,26.356 C4.235,26.356 -0.001,24.436 -0.001,22.068 ZM-0.001,17.280 L-0.001,16.350 C-0.001,16.049 0.068,15.755 0.198,15.472 C1.092,17.419 4.899,18.882 9.459,18.882 C10.375,18.882 11.259,18.822 12.097,18.712 L12.097,21.400 C11.259,21.510 10.375,21.569 9.459,21.569 C4.235,21.569 -0.001,19.649 -0.001,17.280 ZM-0.001,12.492 L-0.001,11.562 C-0.001,9.194 4.235,7.274 9.459,7.274 C10.375,7.274 11.260,7.333 12.097,7.443 L12.097,16.612 C11.259,16.722 10.375,16.781 9.459,16.781 C4.235,16.781 -0.001,14.861 -0.001,12.492 Z" class="cls-1"/>
</svg>
