<svg xmlns="http://www.w3.org/2000/svg" xmlns:xlink="http://www.w3.org/1999/xlink" preserveAspectRatio="xMidYMid" width="38.68" height="37.907" viewBox="0 0 38.68 37.907">
  <defs>
    <style>
      .cls-1 {
        fill: #fff;
        fill-rule: evenodd;
      }
    </style>
  </defs>
  <path d="M37.319,37.893 L1.362,37.893 C0.603,37.893 -0.011,37.278 -0.011,36.520 C-0.011,35.762 0.603,35.148 1.362,35.148 L37.319,35.148 C38.077,35.148 38.691,35.762 38.691,36.520 C38.691,37.278 38.077,37.893 37.319,37.893 ZM32.388,15.528 C32.842,15.528 33.211,15.897 33.211,16.352 L33.211,32.152 C33.211,32.608 32.842,32.977 32.388,32.977 L26.962,32.977 C26.508,32.977 26.138,32.608 26.138,32.152 L26.138,16.352 C26.138,15.897 26.508,15.528 26.962,15.528 L32.388,15.528 ZM21.953,25.823 C22.408,25.823 22.777,26.192 22.777,26.648 L22.777,32.152 C22.777,32.608 22.408,32.977 21.953,32.977 L16.528,32.977 C16.074,32.977 15.705,32.608 15.705,32.152 L15.705,26.648 C15.705,26.192 16.074,25.823 16.528,25.823 L21.953,25.823 ZM33.770,7.195 C33.666,7.239 33.555,7.261 33.446,7.261 C33.256,7.261 33.070,7.195 32.919,7.070 L31.072,5.528 L19.094,19.308 C18.877,19.558 18.571,19.686 18.263,19.686 C18.020,19.686 17.777,19.606 17.574,19.442 L8.199,11.858 C7.727,11.477 7.653,10.784 8.035,10.312 C8.417,9.841 9.109,9.769 9.580,10.150 L18.131,17.067 L29.385,4.121 L27.825,2.819 C27.588,2.620 27.481,2.306 27.550,2.003 C27.620,1.701 27.852,1.464 28.152,1.388 L33.624,0.008 C33.880,-0.057 34.151,0.005 34.352,0.173 C34.555,0.343 34.664,0.598 34.647,0.861 L34.268,6.492 C34.248,6.802 34.055,7.073 33.770,7.195 ZM12.344,22.032 L12.344,32.152 C12.344,32.608 11.974,32.977 11.519,32.977 L6.095,32.977 C5.639,32.977 5.270,32.608 5.270,32.152 L5.270,22.032 C5.270,21.577 5.639,21.208 6.095,21.208 L11.519,21.208 C11.974,21.208 12.344,21.577 12.344,22.032 Z" class="cls-1"/>
</svg>
