<svg xmlns="http://www.w3.org/2000/svg" xmlns:xlink="http://www.w3.org/1999/xlink" preserveAspectRatio="xMidYMid" width="40.03" height="29" viewBox="0 0 40.03 29">
  <defs>
    <style>
      .cls-1 {
        fill: #007aff;
        fill-rule: evenodd;
      }
    </style>
  </defs>
  <path d="M39.067,28.996 L30.930,28.996 C31.047,28.669 31.122,28.322 31.122,27.954 L31.122,24.292 C31.122,23.008 30.320,21.837 29.125,21.379 C26.925,20.530 24.920,19.578 23.342,18.721 L23.342,17.287 C22.297,17.284 21.409,17.199 20.657,17.074 C20.565,17.005 20.479,16.938 20.401,16.876 C21.103,15.931 21.670,14.821 22.077,13.595 C22.879,12.774 23.340,11.659 23.340,10.483 C23.340,9.746 23.152,9.017 22.799,8.367 L22.799,5.705 C22.799,4.392 22.567,3.228 22.136,2.219 C22.180,2.179 22.220,2.136 22.264,2.097 C22.763,1.595 23.402,1.206 24.182,0.949 C24.942,0.648 25.761,0.475 26.623,0.475 C27.433,0.475 28.208,0.628 28.930,0.897 C29.894,1.180 30.642,1.655 31.187,2.286 C32.632,3.618 33.553,5.569 33.553,7.749 C33.553,7.749 34.122,14.868 35.918,15.886 C35.918,15.886 34.210,17.276 29.903,17.287 L29.903,19.521 C30.305,20.808 35.093,22.097 39.406,23.761 C39.773,23.902 40.016,24.260 40.016,24.659 L40.016,28.036 C40.016,28.566 39.591,28.996 39.067,28.996 ZM19.870,13.571 C19.745,13.882 19.600,14.174 19.452,14.460 C19.426,14.508 19.407,14.562 19.381,14.609 C19.026,15.264 18.606,15.841 18.141,16.332 C18.137,16.335 18.134,16.339 18.132,16.342 C18.110,16.364 18.093,16.392 18.072,16.413 L18.072,17.294 C18.313,18.067 20.017,19.278 22.282,20.511 C22.714,20.748 23.170,20.984 23.637,21.218 C23.675,21.237 23.713,21.256 23.750,21.275 C24.207,21.502 24.676,21.727 25.153,21.947 C25.206,21.972 25.261,21.997 25.315,22.022 C25.789,22.239 26.268,22.451 26.749,22.655 C26.798,22.676 26.847,22.696 26.896,22.717 C27.392,22.926 27.888,23.128 28.379,23.317 C28.777,23.470 29.041,23.859 29.041,24.292 L29.041,27.954 C29.041,28.529 28.580,28.996 28.011,28.996 L14.177,28.996 L1.014,28.996 C0.446,28.996 -0.015,28.529 -0.015,27.954 L-0.015,24.292 C-0.015,23.859 0.249,23.471 0.647,23.317 C5.324,21.512 10.519,18.688 10.954,17.294 L10.954,16.413 C9.983,15.422 9.218,14.041 8.765,12.422 C8.163,11.999 7.766,11.289 7.766,10.483 C7.766,9.909 7.974,9.390 8.306,8.983 L8.306,5.705 C8.306,2.320 10.309,0.003 14.512,0.003 C18.479,0.003 20.390,1.961 20.676,4.904 C20.678,4.923 20.681,4.942 20.682,4.962 C20.705,5.204 20.718,5.450 20.718,5.705 L20.718,8.982 C21.051,9.390 21.260,9.909 21.260,10.483 C21.260,11.290 20.862,12.001 20.260,12.422 C20.149,12.821 20.018,13.204 19.870,13.571 Z" class="cls-1"/>
</svg>
