<svg xmlns="http://www.w3.org/2000/svg" xmlns:xlink="http://www.w3.org/1999/xlink" preserveAspectRatio="xMidYMid" width="33.38" height="29.438" viewBox="0 0 33.38 29.438">
  <defs>
    <style>
      .cls-1 {
        fill: #007aff;
        fill-rule: evenodd;
      }
    </style>
  </defs>
  <path d="M32.612,16.481 C28.920,21.581 22.968,24.625 16.690,24.625 C15.041,24.625 13.417,24.410 11.848,24.008 L14.902,20.951 C15.493,21.018 16.090,21.053 16.690,21.053 C21.382,21.053 25.852,18.974 28.894,15.433 C27.560,13.881 25.953,12.610 24.172,11.672 L26.787,9.054 C29.040,10.406 31.033,12.206 32.612,14.385 L33.370,15.433 L32.612,16.481 ZM23.233,13.647 C23.233,17.264 20.303,20.196 16.690,20.196 C16.364,20.196 16.046,20.165 15.733,20.119 L23.155,12.690 C23.201,13.003 23.233,13.321 23.233,13.647 ZM25.817,8.509 L23.147,11.183 L22.856,11.474 L14.519,19.819 L13.595,20.744 L10.675,23.667 L5.491,28.856 C5.096,29.251 4.578,29.449 4.061,29.449 C3.543,29.449 3.025,29.251 2.631,28.856 C1.841,28.065 1.841,26.784 2.631,25.993 L6.725,21.896 L9.352,19.266 L11.283,17.333 L13.850,14.763 L15.859,12.752 L18.667,9.942 L20.372,8.235 L21.700,6.906 L28.017,0.582 C28.412,0.187 28.930,-0.011 29.447,-0.011 C29.965,-0.011 30.482,0.187 30.877,0.582 C31.667,1.373 31.667,2.654 30.877,3.445 L25.817,8.509 ZM17.264,9.830 L15.367,11.729 C15.041,11.396 14.588,11.189 14.086,11.189 C13.094,11.189 12.289,11.994 12.289,12.988 C12.289,13.491 12.496,13.944 12.828,14.271 L10.740,16.360 C10.363,15.533 10.147,14.616 10.147,13.647 C10.147,12.693 10.356,11.790 10.722,10.972 C8.338,11.930 6.188,13.452 4.486,15.433 C5.609,16.741 6.927,17.846 8.379,18.724 L5.794,21.312 C3.868,20.028 2.157,18.400 0.769,16.482 L0.010,15.433 L0.769,14.385 C4.460,9.286 10.412,6.242 16.690,6.242 C17.970,6.242 19.235,6.375 20.471,6.619 L19.400,7.692 L17.264,9.830 Z" class="cls-1"/>
</svg>
