<svg xmlns="http://www.w3.org/2000/svg" xmlns:xlink="http://www.w3.org/1999/xlink" preserveAspectRatio="xMidYMid" width="28" height="28" viewBox="0 0 28 28">
  <defs>
    <style>
      .cls-1 {
        fill: #007aff;
        fill-rule: evenodd;
      }
    </style>
  </defs>
  <path d="M26.512,28.014 L25.195,28.014 C24.382,28.014 23.722,27.337 23.722,26.503 L23.722,13.542 C23.719,12.708 24.379,12.032 25.192,12.032 L26.512,12.032 C27.326,12.032 27.985,12.708 27.985,13.542 L27.985,26.503 C27.985,27.337 27.326,28.014 26.512,28.014 ZM19.243,28.014 C15.581,27.999 9.647,27.966 5.427,27.996 C4.900,27.999 4.411,27.715 4.146,27.246 L0.424,20.715 C0.171,20.261 0.038,19.748 0.036,19.225 L0.015,11.391 C0.015,10.554 0.675,9.878 1.488,9.875 L11.957,9.862 C11.957,9.862 11.350,7.316 11.240,6.122 C11.167,5.306 11.149,4.494 11.332,3.690 C11.603,2.482 11.907,1.726 12.390,0.790 C12.649,0.294 13.150,-0.014 13.695,-0.014 L15.722,-0.014 C16.538,-0.014 17.198,0.666 17.195,1.503 C17.190,2.902 17.190,4.769 17.219,4.832 C18.014,6.548 18.937,8.195 19.977,9.766 C20.451,10.485 20.949,11.183 21.526,11.820 C21.780,12.098 21.919,12.467 21.919,12.844 L21.919,26.053 C21.919,26.443 21.771,26.820 21.506,27.101 C21.111,27.518 20.404,28.014 19.243,28.014 Z" class="cls-1"/>
</svg>
