<svg xmlns="http://www.w3.org/2000/svg" xmlns:xlink="http://www.w3.org/1999/xlink" preserveAspectRatio="xMidYMid" width="38" height="31" viewBox="0 0 38 31">
  <defs>
    <style>
      .cls-1 {
        fill: #007aff;
        fill-rule: evenodd;
      }
    </style>
  </defs>
  <path d="M34.908,12.971 C34.995,13.109 35.091,13.260 35.196,13.420 C35.417,13.766 35.628,14.104 35.801,14.415 L35.872,14.554 C36.013,14.825 36.192,15.167 36.222,15.639 C36.319,16.378 35.763,17.201 35.044,17.357 C34.872,17.398 34.754,17.411 34.628,17.411 L34.620,17.411 C34.004,17.373 33.593,17.151 33.196,16.936 L32.999,16.830 C32.530,16.566 31.991,16.229 31.469,15.902 C31.220,15.746 30.974,15.592 30.739,15.448 C30.373,15.220 30.062,15.038 29.842,14.919 C29.815,14.906 29.789,14.892 29.762,14.880 C29.441,14.914 29.116,14.936 28.774,14.945 L28.502,14.947 C28.124,14.947 27.754,14.925 27.387,14.890 C27.062,13.681 26.531,12.543 25.824,11.496 C26.643,11.766 27.548,11.924 28.496,11.924 L28.707,11.922 C29.015,11.915 29.332,11.891 29.629,11.856 C29.712,11.839 29.804,11.830 29.904,11.830 C30.528,11.871 30.919,12.085 31.296,12.292 L31.517,12.413 C31.522,12.415 31.525,12.417 31.530,12.420 C31.531,11.917 31.823,11.280 32.425,10.993 C34.054,10.132 35.042,8.783 35.039,7.399 C35.014,5.001 32.122,3.033 28.723,3.033 C28.659,3.033 28.601,3.033 28.540,3.036 C25.116,3.112 22.152,5.222 22.179,7.550 L22.179,7.646 C22.180,7.738 22.194,7.828 22.203,7.918 C21.331,7.328 20.376,6.822 19.356,6.404 C20.057,2.841 23.799,0.121 28.440,0.014 C28.474,0.012 28.540,0.011 28.605,0.011 L28.726,0.011 C33.796,0.011 37.866,3.191 37.990,7.251 L37.991,7.399 C37.987,9.519 36.847,11.556 34.908,12.971 ZM25.478,17.600 C25.478,17.684 25.478,17.757 25.474,17.826 C25.313,23.269 19.790,27.553 12.899,27.554 L12.532,27.551 C12.024,27.538 11.545,27.505 11.068,27.451 C11.004,27.482 10.923,27.521 10.832,27.567 C10.540,27.723 10.103,27.981 9.581,28.304 C9.249,28.508 8.905,28.723 8.558,28.940 C7.838,29.391 7.094,29.858 6.449,30.221 L6.165,30.373 C5.622,30.668 5.106,30.947 4.400,30.993 L4.344,30.995 L4.334,30.995 C4.184,30.995 4.044,30.980 3.893,30.945 L3.797,30.921 C2.913,30.730 2.360,29.708 2.469,28.932 C2.504,28.346 2.725,27.923 2.921,27.547 L3.003,27.389 C3.260,26.922 3.557,26.451 3.839,26.008 C4.068,25.655 4.270,25.337 4.438,25.065 C1.654,23.152 0.007,20.326 -0.000,17.386 C-0.000,17.315 -0.000,17.236 0.004,17.165 C0.167,11.722 5.693,7.439 12.580,7.439 L12.742,7.439 C12.742,7.439 12.742,7.439 12.743,7.439 C12.828,7.439 12.913,7.440 12.996,7.445 C19.937,7.604 25.432,12.064 25.478,17.600 Z" class="cls-1"/>
</svg>
