<svg xmlns="http://www.w3.org/2000/svg" xmlns:xlink="http://www.w3.org/1999/xlink" preserveAspectRatio="xMidYMid" width="20.15" height="36" viewBox="0 0 20.15 36">
  <defs>
    <style>
      .cls-1 {
        fill: #007aff;
        fill-rule: evenodd;
      }
    </style>
  </defs>
  <path d="M17.015,0.000 L3.150,0.000 C1.416,0.000 -0.003,1.430 -0.003,3.175 L-0.003,32.826 C-0.003,34.572 1.416,36.000 3.150,36.000 L17.015,36.000 C18.749,36.000 20.167,34.572 20.167,32.826 L20.167,3.175 C20.167,1.430 18.749,0.000 17.015,0.000 ZM10.082,34.206 C9.036,34.206 8.191,33.354 8.191,32.302 C8.191,31.250 9.036,30.396 10.082,30.396 C11.128,30.396 11.974,31.250 11.974,32.302 C11.974,33.354 11.128,34.206 10.082,34.206 ZM18.023,28.792 L2.142,28.792 L2.142,5.118 L18.023,5.118 L18.023,28.792 Z" class="cls-1"/>
</svg>
