<svg xmlns="http://www.w3.org/2000/svg" xmlns:xlink="http://www.w3.org/1999/xlink" preserveAspectRatio="xMidYMid" width="30.38" height="30.376" viewBox="0 0 30.38 30.376">
  <defs>
    <style>
      .cls-1 {
        fill: #3ab54a;
        fill-rule: evenodd;
      }
    </style>
  </defs>
  <path d="M30.249,24.219 L30.098,23.758 C29.741,22.696 28.568,21.588 27.486,21.291 L23.493,20.200 C22.411,19.907 20.868,20.302 20.074,21.097 L18.629,22.541 C13.379,21.120 9.261,17.002 7.844,11.752 L9.288,10.308 C10.079,9.517 10.475,7.973 10.182,6.889 L9.093,2.895 C8.800,1.814 7.686,0.640 6.624,0.284 L6.169,0.132 C5.103,-0.224 3.583,0.135 2.792,0.930 L0.629,3.093 C0.243,3.476 -0.004,4.574 -0.004,4.577 C-0.077,11.442 2.614,18.054 7.468,22.910 C12.308,27.751 18.896,30.438 25.738,30.379 C25.774,30.379 26.905,30.138 27.291,29.753 L29.455,27.589 C30.246,26.801 30.602,25.281 30.249,24.219 Z" class="cls-1"/>
</svg>
