<svg xmlns="http://www.w3.org/2000/svg" xmlns:xlink="http://www.w3.org/1999/xlink" preserveAspectRatio="xMidYMid" width="29.38" height="29.344" viewBox="0 0 29.38 29.344">
  <defs>
    <style>
      .cls-1 {
        fill: #007aff;
        fill-rule: evenodd;
      }
    </style>
  </defs>
  <path d="M18.009,14.388 L17.577,14.820 L20.945,18.188 C20.946,18.188 20.946,18.188 20.946,18.189 L27.731,24.973 C28.156,25.398 28.390,25.963 28.390,26.564 C28.390,27.165 28.156,27.730 27.731,28.155 C27.306,28.580 26.741,28.814 26.140,28.814 C25.539,28.814 24.975,28.580 24.549,28.155 L18.857,22.463 L18.392,22.928 C18.060,23.259 17.620,23.442 17.151,23.442 C16.721,23.442 16.307,23.285 15.985,22.999 C15.320,22.407 14.046,21.262 12.548,19.849 L3.698,28.700 C3.289,29.109 2.744,29.334 2.166,29.334 C1.587,29.334 1.043,29.109 0.633,28.700 C0.224,28.290 -0.002,27.746 -0.002,27.167 C-0.002,26.589 0.224,26.044 0.633,25.635 L9.439,16.828 C7.827,15.206 6.236,13.503 5.034,11.993 C2.246,8.492 1.299,4.456 0.982,2.362 C0.912,1.894 1.046,1.422 1.352,1.066 C1.662,0.706 2.113,0.499 2.589,0.499 C3.019,0.499 3.425,0.668 3.732,0.975 L14.513,11.755 L14.945,11.323 C14.509,9.877 14.826,8.286 15.918,7.194 L22.786,0.326 C23.250,-0.138 24.002,-0.138 24.467,0.326 C24.930,0.790 24.930,1.543 24.467,2.007 L18.439,8.034 L19.029,8.623 L25.056,2.596 C25.520,2.132 26.272,2.132 26.737,2.596 C27.200,3.061 27.200,3.813 26.737,4.277 L20.709,10.304 L21.299,10.894 L27.326,4.866 C27.790,4.402 28.542,4.402 29.007,4.866 C29.471,5.331 29.471,6.083 29.007,6.547 L22.139,13.414 C22.138,13.415 22.138,13.415 22.137,13.416 C21.386,14.167 20.371,14.580 19.280,14.580 L19.280,14.580 C18.850,14.581 18.422,14.514 18.009,14.388 Z" class="cls-1"/>
</svg>
