<svg xmlns="http://www.w3.org/2000/svg" xmlns:xlink="http://www.w3.org/1999/xlink" preserveAspectRatio="xMidYMid" width="31.56" height="31.562" viewBox="0 0 31.56 31.562">
  <defs>
    <style>
      .cls-1 {
        fill: #fff;
        fill-rule: evenodd;
      }
    </style>
  </defs>
  <path d="M30.869,27.435 L24.359,20.925 C25.928,18.660 26.713,16.136 26.713,13.352 C26.713,11.543 26.362,9.812 25.659,8.161 C24.957,6.509 24.008,5.086 22.813,3.890 C21.617,2.695 20.194,1.745 18.542,1.043 C16.891,0.341 15.160,-0.010 13.351,-0.010 C11.542,-0.010 9.811,0.341 8.160,1.043 C6.508,1.745 5.085,2.695 3.889,3.890 C2.693,5.086 1.744,6.510 1.042,8.161 C0.339,9.812 -0.011,11.543 -0.011,13.352 C-0.011,15.161 0.339,16.891 1.042,18.543 C1.744,20.194 2.693,21.617 3.889,22.813 C5.085,24.009 6.508,24.958 8.160,25.660 C9.811,26.363 11.542,26.714 13.351,26.714 C16.135,26.714 18.659,25.929 20.924,24.360 L27.434,30.851 C27.889,31.332 28.458,31.572 29.142,31.572 C29.800,31.572 30.370,31.332 30.850,30.851 C31.331,30.370 31.572,29.801 31.572,29.143 C31.572,28.473 31.338,27.903 30.869,27.435 ZM19.358,19.359 C17.694,21.023 15.692,21.855 13.351,21.855 C11.010,21.855 9.007,21.023 7.344,19.359 C5.680,17.695 4.848,15.693 4.848,13.352 C4.848,11.011 5.680,9.008 7.344,7.345 C9.007,5.681 11.010,4.849 13.351,4.849 C15.691,4.849 17.694,5.681 19.358,7.345 C21.022,9.008 21.854,11.011 21.854,13.352 C21.854,15.693 21.022,17.695 19.358,19.359 Z" class="cls-1"/>
</svg>
