<svg xmlns="http://www.w3.org/2000/svg" xmlns:xlink="http://www.w3.org/1999/xlink" preserveAspectRatio="xMidYMid" width="34.88" height="34.812" viewBox="0 0 34.88 34.812">
  <defs>
    <style>
      .cls-1 {
        fill: #007aff;
        fill-rule: evenodd;
      }
    </style>
  </defs>
  <path d="M33.753,23.317 C32.159,27.557 29.012,30.958 24.892,32.895 C24.688,32.991 24.472,33.036 24.262,33.036 C23.709,33.036 23.178,32.726 22.926,32.198 C22.577,31.467 22.891,30.593 23.628,30.247 C27.048,28.639 29.662,25.814 30.987,22.292 C32.337,18.701 32.197,14.803 30.593,11.315 C28.989,7.828 26.113,5.170 22.493,3.830 C15.022,1.064 6.677,4.845 3.890,12.259 C1.760,17.925 3.427,24.183 7.917,28.068 L9.281,25.335 C9.399,25.099 9.633,24.946 9.897,24.929 C10.163,24.912 10.414,25.038 10.559,25.257 L15.608,32.856 C15.752,33.071 15.769,33.346 15.656,33.577 C15.543,33.810 15.316,33.965 15.057,33.989 L5.801,34.815 C5.780,34.816 5.758,34.818 5.736,34.818 C5.493,34.818 5.265,34.699 5.126,34.499 C4.976,34.280 4.956,33.998 5.074,33.760 L6.564,30.777 C0.708,26.148 -1.534,18.303 1.124,11.235 C4.481,2.307 14.531,-2.246 23.525,1.085 C27.884,2.699 31.348,5.899 33.279,10.099 C35.211,14.298 35.379,18.992 33.753,23.317 ZM16.705,8.686 C17.235,8.686 17.663,9.115 17.663,9.644 L17.663,18.384 L23.803,18.384 C24.510,18.384 25.082,18.957 25.082,19.663 C25.082,20.368 24.510,20.941 23.803,20.941 L17.070,20.941 C16.559,20.941 16.121,20.640 15.917,20.206 C15.809,20.052 15.746,19.865 15.746,19.663 L15.746,9.644 C15.746,9.115 16.176,8.686 16.705,8.686 Z" class="cls-1"/>
</svg>
