<svg xmlns="http://www.w3.org/2000/svg" xmlns:xlink="http://www.w3.org/1999/xlink" preserveAspectRatio="xMidYMid" width="36" height="19.812" viewBox="0 0 36 19.812">
  <defs>
    <style>
      .cls-1 {
        fill: #007aff;
        fill-rule: evenodd;
      }
    </style>
  </defs>
  <path d="M27.599,19.805 L27.599,14.349 L36.000,14.349 L36.000,19.805 L27.599,19.805 ZM-0.001,14.349 L25.420,14.349 L25.420,19.805 L-0.001,19.805 L-0.001,14.349 ZM11.170,4.881 C11.057,5.265 10.925,5.627 10.788,5.971 C10.649,6.316 10.506,6.643 10.361,6.957 L10.336,7.013 L10.317,7.052 L10.280,7.128 C10.255,7.177 10.233,7.226 10.212,7.274 C10.189,7.321 10.169,7.367 10.149,7.413 C10.131,7.458 10.110,7.502 10.094,7.546 C10.024,7.721 9.967,7.886 9.926,8.073 C9.887,8.257 9.870,8.463 9.879,8.680 C9.888,8.897 9.923,9.121 9.968,9.332 C9.992,9.436 10.014,9.542 10.043,9.637 C10.069,9.735 10.096,9.827 10.123,9.911 C10.174,10.082 10.225,10.221 10.260,10.321 C10.278,10.372 10.292,10.411 10.301,10.437 C10.311,10.464 10.317,10.477 10.317,10.477 C10.317,10.477 10.302,10.479 10.272,10.483 C10.244,10.487 10.200,10.493 10.145,10.494 C10.034,10.500 9.874,10.494 9.672,10.463 C9.572,10.445 9.462,10.421 9.343,10.387 C9.228,10.350 9.098,10.309 8.967,10.249 C8.706,10.130 8.419,9.956 8.142,9.697 C7.866,9.439 7.603,9.090 7.416,8.659 C7.229,8.228 7.127,7.718 7.139,7.206 C7.142,7.078 7.152,6.951 7.166,6.824 C7.182,6.698 7.203,6.572 7.229,6.448 C7.257,6.325 7.289,6.203 7.326,6.083 C7.344,6.023 7.364,5.964 7.385,5.906 L7.417,5.819 L7.444,5.750 C7.583,5.395 7.739,5.047 7.900,4.717 C8.224,4.056 8.571,3.466 8.827,2.986 C8.958,2.745 9.065,2.535 9.149,2.338 C9.232,2.141 9.293,1.952 9.320,1.748 C9.349,1.544 9.340,1.328 9.313,1.119 C9.296,1.017 9.279,0.916 9.257,0.820 C9.235,0.726 9.213,0.635 9.190,0.552 C9.144,0.387 9.100,0.251 9.071,0.156 C9.042,0.058 9.026,0.007 9.026,0.007 C9.026,0.007 9.080,0.013 9.183,0.032 C9.282,0.053 9.430,0.085 9.610,0.153 C9.700,0.187 9.799,0.227 9.904,0.282 C10.010,0.335 10.122,0.399 10.236,0.480 C10.469,0.640 10.718,0.867 10.932,1.185 C11.148,1.501 11.316,1.910 11.395,2.347 C11.476,2.784 11.475,3.238 11.426,3.664 C11.377,4.093 11.281,4.498 11.170,4.881 ZM6.019,4.881 C5.907,5.265 5.775,5.627 5.638,5.971 C5.499,6.316 5.356,6.643 5.211,6.957 L5.185,7.013 L5.167,7.052 L5.130,7.128 C5.104,7.177 5.082,7.226 5.062,7.274 C5.039,7.321 5.019,7.367 5.000,7.413 C4.980,7.458 4.960,7.502 4.944,7.546 C4.874,7.721 4.816,7.886 4.777,8.073 C4.737,8.257 4.720,8.463 4.729,8.680 C4.738,8.897 4.772,9.121 4.817,9.332 C4.842,9.436 4.864,9.542 4.893,9.637 C4.918,9.735 4.945,9.827 4.973,9.911 C5.024,10.082 5.075,10.221 5.109,10.321 C5.128,10.372 5.142,10.411 5.151,10.437 C5.161,10.464 5.166,10.477 5.166,10.477 C5.166,10.477 5.151,10.479 5.123,10.483 C5.093,10.487 5.050,10.493 4.995,10.494 C4.883,10.500 4.723,10.494 4.521,10.463 C4.422,10.445 4.312,10.421 4.193,10.387 C4.077,10.350 3.948,10.309 3.817,10.249 C3.555,10.130 3.268,9.956 2.991,9.697 C2.716,9.439 2.453,9.090 2.266,8.659 C2.078,8.228 1.976,7.718 1.988,7.206 C1.992,7.078 2.000,6.951 2.015,6.824 C2.032,6.698 2.052,6.572 2.078,6.448 C2.107,6.325 2.139,6.203 2.175,6.083 C2.193,6.023 2.214,5.964 2.235,5.906 L2.266,5.819 L2.294,5.750 C2.432,5.395 2.589,5.047 2.750,4.717 C3.074,4.056 3.421,3.466 3.677,2.986 C3.808,2.745 3.915,2.535 3.999,2.338 C4.082,2.141 4.143,1.952 4.170,1.748 C4.198,1.544 4.189,1.328 4.163,1.119 C4.146,1.017 4.128,0.916 4.107,0.820 C4.085,0.726 4.062,0.635 4.039,0.552 C3.993,0.387 3.949,0.251 3.921,0.156 C3.891,0.058 3.875,0.007 3.875,0.007 C3.875,0.007 3.930,0.013 4.032,0.032 C4.132,0.053 4.280,0.085 4.459,0.153 C4.549,0.187 4.649,0.227 4.753,0.282 C4.858,0.335 4.971,0.399 5.087,0.480 C5.319,0.640 5.567,0.867 5.782,1.185 C5.998,1.501 6.165,1.910 6.245,2.347 C6.326,2.784 6.325,3.238 6.276,3.664 C6.227,4.093 6.131,4.498 6.019,4.881 Z" class="cls-1"/>
</svg>
