<svg xmlns="http://www.w3.org/2000/svg" xmlns:xlink="http://www.w3.org/1999/xlink" preserveAspectRatio="xMidYMid" width="30" height="30" viewBox="0 0 30 30">
  <defs>
    <style>
      .cls-1 {
        fill: #007aff;
        fill-rule: evenodd;
      }
    </style>
  </defs>
  <path d="M14.998,29.993 C6.728,29.993 0.001,23.266 0.001,14.996 C0.001,6.727 6.728,-0.001 14.998,-0.001 C23.268,-0.001 29.995,6.727 29.995,14.996 C29.995,23.266 23.268,29.993 14.998,29.993 ZM14.998,2.158 C7.919,2.158 2.159,7.918 2.159,14.996 C2.159,22.075 7.919,27.834 14.998,27.834 C22.077,27.834 27.837,22.075 27.837,14.996 C27.837,7.918 22.077,2.158 14.998,2.158 ZM23.918,12.880 L19.071,16.515 L20.832,22.274 C20.900,22.497 20.821,22.739 20.633,22.876 C20.536,22.948 20.421,22.983 20.308,22.983 C20.199,22.983 20.091,22.950 19.997,22.885 L14.998,19.444 L10.000,22.885 C9.808,23.019 9.553,23.014 9.365,22.876 C9.176,22.739 9.097,22.497 9.164,22.274 L10.924,16.515 L6.078,12.880 C5.892,12.739 5.815,12.496 5.886,12.273 C5.957,12.050 6.163,11.897 6.397,11.892 L12.483,11.770 L14.480,6.083 C14.558,5.864 14.765,5.716 14.998,5.716 C15.231,5.716 15.438,5.864 15.516,6.083 L17.513,11.770 L23.599,11.892 C23.833,11.897 24.039,12.050 24.110,12.273 C24.182,12.496 24.105,12.739 23.918,12.880 Z" class="cls-1"/>
</svg>
