<svg xmlns="http://www.w3.org/2000/svg" xmlns:xlink="http://www.w3.org/1999/xlink" preserveAspectRatio="xMidYMid" width="30.82" height="20.969" viewBox="0 0 30.82 20.969">
  <defs>
    <style>
      .cls-1 {
        fill: #727272;
        opacity: 0.5;
        fill-rule: evenodd;
      }
    </style>
  </defs>
  <path d="M28.227,3.451 L29.102,3.451 C30.058,3.451 30.831,2.677 30.831,1.723 C30.831,0.768 30.058,-0.006 29.102,-0.006 L1.747,-0.006 C0.792,-0.006 0.017,0.768 0.017,1.723 C0.017,2.677 0.792,3.451 1.747,3.451 L2.623,3.451 L0.762,19.725 C0.692,20.339 1.133,20.893 1.747,20.964 C2.361,21.034 2.915,20.593 2.985,19.979 L4.874,3.451 L25.975,3.451 L27.864,19.979 C27.930,20.550 28.413,20.971 28.974,20.971 C29.017,20.971 29.059,20.969 29.102,20.964 C29.716,20.894 30.157,20.339 30.087,19.725 L28.227,3.451 Z" class="cls-1"/>
</svg>
