<svg xmlns="http://www.w3.org/2000/svg" xmlns:xlink="http://www.w3.org/1999/xlink" preserveAspectRatio="xMidYMid" width="28.82" height="28.812" viewBox="0 0 28.82 28.812">
  <defs>
    <style>
      .cls-1 {
        fill: #727272;
        opacity: 0.5;
        fill-rule: evenodd;
      }
    </style>
  </defs>
  <path d="M14.408,28.800 C6.470,28.800 0.012,22.341 0.012,14.403 C0.012,6.465 6.470,0.008 14.408,0.008 C22.346,0.008 28.804,6.465 28.804,14.403 C28.804,22.341 22.346,28.800 14.408,28.800 ZM14.408,3.064 C8.155,3.064 3.068,8.151 3.068,14.403 C3.068,20.656 8.155,25.743 14.408,25.743 C20.660,25.743 25.747,20.656 25.747,14.403 C25.747,8.151 20.660,3.064 14.408,3.064 ZM20.066,16.109 L14.081,16.109 C13.627,16.109 13.238,15.840 13.056,15.455 C12.960,15.318 12.904,15.152 12.904,14.972 L12.904,6.067 C12.904,5.597 13.287,5.215 13.757,5.215 C14.228,5.215 14.609,5.597 14.609,6.067 L14.609,13.835 L20.066,13.835 C20.695,13.835 21.203,14.344 21.203,14.972 C21.203,15.599 20.695,16.109 20.066,16.109 Z" class="cls-1"/>
</svg>
