<svg xmlns="http://www.w3.org/2000/svg" xmlns:xlink="http://www.w3.org/1999/xlink" preserveAspectRatio="xMidYMid" width="28" height="28" viewBox="0 0 28 28">
  <defs>
    <style>
      .cls-1 {
        fill: #007aff;
        fill-rule: evenodd;
      }
    </style>
  </defs>
  <path d="M26.512,15.968 L25.192,15.968 C24.379,15.968 23.719,15.292 23.722,14.458 L23.722,1.497 C23.722,0.663 24.382,-0.014 25.195,-0.014 L26.512,-0.014 C27.326,-0.014 27.985,0.663 27.985,1.497 L27.985,14.458 C27.985,15.292 27.326,15.968 26.512,15.968 ZM19.977,18.234 C18.937,19.805 18.014,21.452 17.219,23.168 C17.190,23.231 17.190,25.098 17.195,26.497 C17.198,27.334 16.538,28.014 15.722,28.014 L13.695,28.014 C13.150,28.014 12.649,27.706 12.390,27.210 C11.907,26.274 11.603,25.518 11.332,24.310 C11.149,23.506 11.167,22.693 11.240,21.878 C11.350,20.684 11.957,18.138 11.957,18.138 L1.488,18.125 C0.675,18.122 0.015,17.446 0.015,16.609 L0.036,8.775 C0.038,8.252 0.171,7.739 0.424,7.285 L4.146,0.754 C4.411,0.285 4.900,0.001 5.427,0.004 C9.647,0.035 15.581,0.001 19.243,-0.014 C20.404,-0.014 21.111,0.482 21.506,0.899 C21.771,1.180 21.919,1.557 21.919,1.947 L21.919,15.156 C21.919,15.533 21.780,15.902 21.526,16.180 C20.949,16.817 20.451,17.515 19.977,18.234 Z" class="cls-1"/>
</svg>
